<svg xmlns="http://www.w3.org/2000/svg" width="570" height="441" fill="none"><mask id="a" width="545" height="410" x="0" y="1" fill="#000" maskUnits="userSpaceOnUse"><path fill="#fff" d="M0 1h545v410H0z"/><path d="M0 1h545v408H0V1Z"/></mask><path fill="#1A212A" d="M545 407H0v4h545v-4Z" mask="url(#a)"/><path fill="#1A212A" d="M27 136.877c0-1.036.84-1.877 1.877-1.877h29.246c1.037 0 1.877.841 1.877 1.877V409H27V136.877Zm254-27c0-1.036.841-1.877 1.877-1.877h29.246c1.036 0 1.877.841 1.877 1.877V409h-33V109.877Zm-203-79C78 29.84 78.84 29 79.877 29h29.246c1.036 0 1.877.84 1.877 1.877V409H78V30.877Z"/><path fill="#344250" d="M331 30.877c0-1.037.841-1.877 1.877-1.877h29.246c1.036 0 1.877.84 1.877 1.877V409h-33V30.877Z"/><path fill="#1A212A" d="M129 188.877c0-1.036.841-1.877 1.877-1.877h29.246c1.036 0 1.877.841 1.877 1.877V409h-33V188.877Zm253-27c0-1.036.841-1.877 1.877-1.877h29.246c1.036 0 1.877.841 1.877 1.877V409h-33V161.877Zm-203-74c0-1.036.841-1.877 1.877-1.877h29.246c1.036 0 1.877.84 1.877 1.877V409h-33V87.877Zm254 0c0-1.036.841-1.877 1.877-1.877h29.246c1.036 0 1.877.84 1.877 1.877V409h-33V87.877Zm-203 129c0-1.036.841-1.877 1.877-1.877h29.246c1.036 0 1.877.841 1.877 1.877V409h-33V216.877Zm253 0c0-1.036.841-1.877 1.877-1.877h30.246c1.036 0 1.877.841 1.877 1.877V409h-34V216.877Z"/><path stroke="url(#b)" stroke-width="2" d="m28 320 6.112-8c6.52-8 19.153-24 31.378-48 12.633-24 25.265-56 37.898-60 12.225-4 24.857 20 37.49 20 12.632 0 24.857-24 37.49-36 12.632-12 25.264-12 37.897 16 12.225 28 14.255 89 37.49 76 12.633-8 24.857-80 37.49-92 12.632-12 25.265 36 37.49 40 12.633 4 25.265-36 37.898-28 12.632 8 24.857 64 37.489 84 12.633 20 25.265 4 37.49-16 12.633-20 12.878-18 25.51-34 12.225-16 24.858-24 31.378-28l6.112-4"/><g clip-path="url(#c)"><rect width="114" height="114" fill="#010509" rx="51.211" transform="matrix(-1 0 0 1 499 253)"/><path fill="url(#d)" d="M467.332 310.34a5.117 5.117 0 0 1 5.116 5.117v16.373a5.117 5.117 0 0 1-10.232 0v-16.373a5.116 5.116 0 0 1 5.116-5.117Z"/><path fill="url(#e)" d="M450.441 293.287a5.117 5.117 0 0 1 5.117 5.116v33.427a5.117 5.117 0 0 1-10.233 0v-33.427a5.116 5.116 0 0 1 5.116-5.116Z"/><path fill="url(#f)" d="M433.551 300.108a5.117 5.117 0 0 1 5.116 5.116v26.606a5.116 5.116 0 1 1-10.232 0v-26.606a5.115 5.115 0 0 1 5.116-5.116Z"/><path fill="url(#g)" d="M416.668 283.054a5.117 5.117 0 0 1 5.116 5.116v43.66a5.117 5.117 0 0 1-10.232 0v-43.66a5.116 5.116 0 0 1 5.116-5.116Z"/><path fill="#344250" d="M393.483 261.412c12.963-12.962 30.199-20.102 48.532-20.102 18.333 0 35.567 7.14 48.531 20.102 12.964 12.964 20.102 30.2 20.102 48.533 0 16.404-5.716 31.929-16.204 44.3l13.871 13.871c7.114-3.667 16.094-2.518 22.049 3.438l33.668 33.669a18.783 18.783 0 0 1 5.538 13.37 18.78 18.78 0 0 1-5.538 13.369 18.85 18.85 0 0 1-13.369 5.53 18.85 18.85 0 0 1-13.37-5.53l-33.669-33.669a18.776 18.776 0 0 1-5.538-13.369c0-3.07.727-6.03 2.1-8.679l-13.871-13.872c-12.373 10.489-27.898 16.206-44.301 16.206-18.333 0-35.569-7.14-48.531-20.103-12.963-12.964-20.103-30.198-20.103-48.532 0-18.332 7.14-35.568 20.103-48.532Zm8.129 88.935c10.792 10.792 25.14 16.736 40.403 16.736 15.262 0 29.61-5.944 40.402-16.736 10.792-10.792 16.736-25.14 16.736-40.402 0-15.263-5.944-29.611-16.736-40.404-10.792-10.792-25.14-16.735-40.402-16.735-15.263 0-29.611 5.943-40.403 16.735-10.792 10.793-16.736 25.141-16.736 40.403 0 15.263 5.944 29.611 16.736 40.403Z"/></g><rect width="7.51" height="7.51" x="362" y="197" fill="#007BFF" rx="3.755"/><rect width="11.264" height="11.264" x="360.123" y="195.123" stroke="#007BFF" stroke-opacity=".25" stroke-width="3.755" rx="5.632"/><defs><linearGradient id="b" x1="266.306" x2="266.306" y1="180.383" y2="320" gradientUnits="userSpaceOnUse"><stop stop-color="#0883FD"/><stop offset="1" stop-color="#8CD1FB"/></linearGradient><linearGradient id="d" x1="467.332" x2="467.332" y1="310.34" y2="336.946" gradientUnits="userSpaceOnUse"><stop stop-color="#0883FD"/><stop offset="1" stop-color="#8CD1FB"/></linearGradient><linearGradient id="e" x1="450.441" x2="450.441" y1="293.287" y2="336.946" gradientUnits="userSpaceOnUse"><stop stop-color="#0883FD"/><stop offset="1" stop-color="#8CD1FB"/></linearGradient><linearGradient id="f" x1="433.551" x2="433.551" y1="300.108" y2="336.946" gradientUnits="userSpaceOnUse"><stop stop-color="#0883FD"/><stop offset="1" stop-color="#8CD1FB"/></linearGradient><linearGradient id="g" x1="416.668" x2="416.668" y1="283.054" y2="336.946" gradientUnits="userSpaceOnUse"><stop stop-color="#0883FD"/><stop offset="1" stop-color="#8CD1FB"/></linearGradient><clipPath id="c"><path fill="#fff" d="M569.57 241.31H373.38v196.191h196.19z"/></clipPath></defs></svg>