<svg xmlns="http://www.w3.org/2000/svg" width="558" height="451" fill="none"><path fill="#21262C" stroke="url(#a)" d="M428.876 86.598V61.895h22.005l-7.402 7.402a4.099 4.099 0 0 0 2.899 7 4.09 4.09 0 0 0 2.9-1.201l14.401-14.402a4.098 4.098 0 0 0 0-5.799l-14.401-14.401a4.1 4.1 0 1 0-5.799 5.798l7.402 7.402h-22.005V36.192a7.7 7.7 0 0 0-2.256-5.445l-7.201-7.2a7.702 7.702 0 0 0-5.445-2.257h-28.803a7.701 7.701 0 0 0-7.701 7.701v57.607a7.701 7.701 0 0 0 7.701 7.701h36.004a7.701 7.701 0 0 0 7.701-7.7ZM413.974.688c31.487 0 57.107 25.62 57.107 57.107s-25.62 57.107-57.107 57.107-57.107-25.62-57.107-57.107S382.487.687 413.974.687Z"/><path fill="#1A212A" d="M471.581 57.795c0-31.764-25.843-57.608-57.607-57.608-31.763 0-57.607 25.844-57.607 57.608 0 31.763 25.844 57.607 57.607 57.607 31.764 0 57.607-25.844 57.607-57.607ZM377.97 86.598V28.991a7.2 7.2 0 0 1 7.201-7.2h28.803a7.2 7.2 0 0 1 5.091 2.109l7.201 7.2a7.199 7.199 0 0 1 2.11 5.092v18.002h23.712l-8.255-8.256a3.598 3.598 0 0 1 0-5.09 3.599 3.599 0 0 1 5.091 0l14.402 14.401a3.6 3.6 0 0 1 0 5.091l-14.402 14.402a3.588 3.588 0 0 1-2.546 1.055 3.598 3.598 0 0 1-2.545-6.146l8.255-8.256h-23.712v25.203a7.201 7.201 0 0 1-7.201 7.201h-36.004a7.201 7.201 0 0 1-7.201-7.2Z"/><path fill="url(#b)" d="M413.973 180.21c0 11.912 9.69 21.603 21.603 21.603h100.812c11.913 0 21.603-9.691 21.603-21.603v-21.603H413.973v21.603Zm115.214-3.6a3.599 3.599 0 0 1 3.601-3.601c1.99 0 3.6 1.61 3.6 3.601v7.2a3.598 3.598 0 0 1-3.6 3.601 3.599 3.599 0 0 1-3.601-3.601v-7.2Zm-14.401 0a3.598 3.598 0 0 1 3.6-3.601c1.99 0 3.601 1.61 3.601 3.601v7.2a3.599 3.599 0 0 1-3.601 3.601c-1.99 0-3.6-1.61-3.6-3.601v-7.2Zm-14.402 0a3.598 3.598 0 0 1 3.6-3.601c1.99 0 3.601 1.61 3.601 3.601v7.2a3.599 3.599 0 0 1-3.601 3.601c-1.99 0-3.6-1.61-3.6-3.601v-7.2Zm-14.402 0a3.598 3.598 0 0 1 3.601-3.601c1.99 0 3.6 1.61 3.6 3.601v7.2a3.598 3.598 0 0 1-3.6 3.601 3.598 3.598 0 0 1-3.601-3.601v-7.2Z"/><path fill="#1A212A" d="M413.973 122.603v28.803h144.018v-43.205H454.616c-11.127 8.99-25.258 14.402-40.643 14.402Zm115.214 3.6c0-1.99 1.611-3.6 3.601-3.6s3.6 1.61 3.6 3.6v7.201c0 1.99-1.61 3.601-3.6 3.601a3.6 3.6 0 0 1-3.601-3.601v-7.201Zm-14.401 0c0-1.99 1.61-3.6 3.6-3.6s3.601 1.61 3.601 3.6v7.201a3.6 3.6 0 0 1-3.601 3.601c-1.99 0-3.6-1.611-3.6-3.601v-7.201Zm-14.402 0c0-1.99 1.61-3.6 3.6-3.6s3.601 1.61 3.601 3.6v7.201a3.6 3.6 0 0 1-3.601 3.601c-1.99 0-3.6-1.611-3.6-3.601v-7.201Zm-14.402 0c0-1.99 1.61-3.6 3.601-3.6 1.99 0 3.6 1.61 3.6 3.6v7.201c0 1.99-1.61 3.601-3.6 3.601a3.599 3.599 0 0 1-3.601-3.601v-7.201ZM462.144 101h95.851V57.795h-79.209c0 16.606-6.333 31.725-16.642 43.205Zm67.048-25.203c0-1.99 1.61-3.6 3.6-3.6s3.601 1.61 3.601 3.6v7.2c0 1.991-1.611 3.601-3.601 3.601s-3.6-1.61-3.6-3.6v-7.201Zm-14.402 0c0-1.99 1.61-3.6 3.6-3.6a3.598 3.598 0 0 1 3.601 3.6v7.2a3.598 3.598 0 0 1-3.601 3.601c-1.99 0-3.6-1.61-3.6-3.6v-7.201Zm-14.402 0c0-1.99 1.611-3.6 3.601-3.6s3.6 1.61 3.6 3.6v7.2a3.598 3.598 0 0 1-3.6 3.601 3.599 3.599 0 0 1-3.601-3.6v-7.201Zm-14.402 0c0-1.99 1.611-3.6 3.601-3.6s3.6 1.61 3.6 3.6v7.2a3.598 3.598 0 0 1-3.6 3.601 3.599 3.599 0 0 1-3.601-3.6v-7.201Zm50.407-68.408h-81.772c12.956 10.466 21.805 25.8 23.74 43.205h79.635V28.99c0-11.912-9.69-21.602-21.603-21.602Zm-43.205 25.203c0 1.99-1.61 3.6-3.601 3.6-1.99 0-3.6-1.61-3.6-3.6V25.39c0-1.99 1.61-3.6 3.6-3.6a3.598 3.598 0 0 1 3.601 3.6v7.2Zm14.402 0c0 1.99-1.611 3.6-3.601 3.6s-3.6-1.61-3.6-3.6V25.39c0-1.99 1.61-3.6 3.6-3.6s3.601 1.61 3.601 3.6v7.2Zm14.401 0c0 1.99-1.61 3.6-3.6 3.6s-3.6-1.61-3.6-3.6V25.39c0-1.99 1.61-3.6 3.6-3.6s3.6 1.61 3.6 3.6v7.2Zm14.402 0c0 1.99-1.61 3.6-3.6 3.6a3.599 3.599 0 0 1-3.601-3.6V25.39c0-1.99 1.611-3.6 3.601-3.6s3.6 1.61 3.6 3.6v7.2Z"/><path fill="#21262C" d="M388.775 46.993h28.804c1.99 0 3.6-1.61 3.6-3.6s-1.61-3.6-3.6-3.6h-28.804c-1.99 0-3.6 1.61-3.6 3.6s1.61 3.6 3.6 3.6Zm0 14.402h28.804c1.99 0 3.6-1.61 3.6-3.6s-1.61-3.6-3.6-3.6h-28.804c-1.99 0-3.6 1.61-3.6 3.6s1.61 3.6 3.6 3.6Zm28.804 7.201h-28.804c-1.99 0-3.6 1.61-3.6 3.6s1.61 3.6 3.6 3.6h28.804c1.99 0 3.6-1.61 3.6-3.6s-1.61-3.6-3.6-3.6Z"/><rect width="557" height="230" x=".5" y="220.5" stroke="#344250" rx="19.5"/><path fill="#1A212A" d="M92 227H68a4 4 0 0 0-4 4v24a4 4 0 0 0 4 4h24a4 4 0 0 0 4-4v-24a4 4 0 0 0-4-4Z"/><path fill="#344250" d="M59 231v24c0 2.21-1.79 4-4 4H11c-2.21 0-4-1.79-4-4v-16c0-6.62 5.38-12 12-12h36c2.21 0 4 1.79 4 4Z"/><path fill="#1A212A" d="M134 255v-24a4 4 0 0 0-4-4h-24a4 4 0 0 0-4 4v24a4 4 0 0 0 4 4h24a4 4 0 0 0 4-4Zm38 0v-24a4 4 0 0 0-4-4h-24a4 4 0 0 0-4 4v24a4 4 0 0 0 4 4h24a4 4 0 0 0 4-4Zm38 0v-24a4 4 0 0 0-4-4h-24a4 4 0 0 0-4 4v24a4 4 0 0 0 4 4h24a4 4 0 0 0 4-4Zm38 0v-24a4 4 0 0 0-4-4h-24a4 4 0 0 0-4 4v24a4 4 0 0 0 4 4h24a4 4 0 0 0 4-4Zm38 0v-24a4 4 0 0 0-4-4h-24a4 4 0 0 0-4 4v24a4 4 0 0 0 4 4h24a4 4 0 0 0 4-4Zm38 0v-24a4 4 0 0 0-4-4h-24a4 4 0 0 0-4 4v24a4 4 0 0 0 4 4h24a4 4 0 0 0 4-4Zm38 0v-24a4 4 0 0 0-4-4h-24a4 4 0 0 0-4 4v24a4 4 0 0 0 4 4h24a4 4 0 0 0 4-4Zm38 0v-24a4 4 0 0 0-4-4h-24a4 4 0 0 0-4 4v24a4 4 0 0 0 4 4h24a4 4 0 0 0 4-4Zm38 0v-24a4 4 0 0 0-4-4h-24a4 4 0 0 0-4 4v24a4 4 0 0 0 4 4h24a4 4 0 0 0 4-4Zm38 0v-24a4 4 0 0 0-4-4h-24a4 4 0 0 0-4 4v24a4 4 0 0 0 4 4h24a4 4 0 0 0 4-4Zm38 0v-24a4 4 0 0 0-4-4h-24a4 4 0 0 0-4 4v24a4 4 0 0 0 4 4h24a4 4 0 0 0 4-4ZM77 292v-24a4 4 0 0 0-4-4H49a4 4 0 0 0-4 4v24a4 4 0 0 0 4 4h24a4 4 0 0 0 4-4Zm-38 0v-24a4 4 0 0 0-4-4H11a4 4 0 0 0-4 4v24a4 4 0 0 0 4 4h24a4 4 0 0 0 4-4Zm76 0v-24a4 4 0 0 0-4-4H87a4 4 0 0 0-4 4v24a4 4 0 0 0 4 4h24a4 4 0 0 0 4-4Zm38 0v-24a4 4 0 0 0-4-4h-24a4 4 0 0 0-4 4v24a4 4 0 0 0 4 4h24a4 4 0 0 0 4-4Zm38 0v-24a4 4 0 0 0-4-4h-24a4 4 0 0 0-4 4v24a4 4 0 0 0 4 4h24a4 4 0 0 0 4-4Zm38 0v-24a4 4 0 0 0-4-4h-24a4 4 0 0 0-4 4v24a4 4 0 0 0 4 4h24a4 4 0 0 0 4-4Zm38 0v-24a4 4 0 0 0-4-4h-24a4 4 0 0 0-4 4v24a4 4 0 0 0 4 4h24a4 4 0 0 0 4-4Zm38 0v-24a4 4 0 0 0-4-4h-24a4 4 0 0 0-4 4v24a4 4 0 0 0 4 4h24a4 4 0 0 0 4-4Zm38 0v-24a4 4 0 0 0-4-4h-24a4 4 0 0 0-4 4v24a4 4 0 0 0 4 4h24a4 4 0 0 0 4-4Zm38 0v-24a4 4 0 0 0-4-4h-24a4 4 0 0 0-4 4v24a4 4 0 0 0 4 4h24a4 4 0 0 0 4-4Zm38 0v-24a4 4 0 0 0-4-4h-24a4 4 0 0 0-4 4v24a4 4 0 0 0 4 4h24a4 4 0 0 0 4-4Zm38 0v-24a4 4 0 0 0-4-4h-24a4 4 0 0 0-4 4v24a4 4 0 0 0 4 4h24a4 4 0 0 0 4-4Zm38 0v-24a4 4 0 0 0-4-4h-24a4 4 0 0 0-4 4v24a4 4 0 0 0 4 4h24a4 4 0 0 0 4-4Zm57 0v-24a4 4 0 0 0-4-4h-44a4 4 0 0 0-4 4v24a4 4 0 0 0 4 4h44a4 4 0 0 0 4-4Zm-66 41h24a4 4 0 0 0 4-4v-24a4 4 0 0 0-4-4h-24a4 4 0 0 0-4 4v24a4 4 0 0 0 4 4Zm38 0h24a4 4 0 0 0 4-4v-24a4 4 0 0 0-4-4h-24a4 4 0 0 0-4 4v24a4 4 0 0 0 4 4Zm-76 0h24a4 4 0 0 0 4-4v-24a4 4 0 0 0-4-4h-24a4 4 0 0 0-4 4v24a4 4 0 0 0 4 4Zm-38 0h24a4 4 0 0 0 4-4v-24a4 4 0 0 0-4-4h-24a4 4 0 0 0-4 4v24a4 4 0 0 0 4 4Zm-38 0h24a4 4 0 0 0 4-4v-24a4 4 0 0 0-4-4h-24a4 4 0 0 0-4 4v24a4 4 0 0 0 4 4Zm-38 0h24a4 4 0 0 0 4-4v-24a4 4 0 0 0-4-4h-24a4 4 0 0 0-4 4v24a4 4 0 0 0 4 4Zm-38 0h24a4 4 0 0 0 4-4v-24a4 4 0 0 0-4-4h-24a4 4 0 0 0-4 4v24a4 4 0 0 0 4 4Zm-38 0h24a4 4 0 0 0 4-4v-24a4 4 0 0 0-4-4h-24a4 4 0 0 0-4 4v24a4 4 0 0 0 4 4Zm-38 0h24a4 4 0 0 0 4-4v-24a4 4 0 0 0-4-4h-24a4 4 0 0 0-4 4v24a4 4 0 0 0 4 4Zm-38 0h24a4 4 0 0 0 4-4v-24a4 4 0 0 0-4-4h-24a4 4 0 0 0-4 4v24a4 4 0 0 0 4 4Zm-38 0h24a4 4 0 0 0 4-4v-24a4 4 0 0 0-4-4h-24a4 4 0 0 0-4 4v24a4 4 0 0 0 4 4Zm-38 0h24a4 4 0 0 0 4-4v-24a4 4 0 0 0-4-4h-24a4 4 0 0 0-4 4v24a4 4 0 0 0 4 4Zm-38 0h24a4 4 0 0 0 4-4v-24a4 4 0 0 0-4-4H68a4 4 0 0 0-4 4v24a4 4 0 0 0 4 4Z"/><path fill="#344250" d="M495 370h53a4 4 0 0 0 4-4v-24a4 4 0 0 0-4-4h-53a4 4 0 0 0-4 4v24a4 4 0 0 0 4 4Z"/><path fill="#1A212A" d="M11 370h53a4 4 0 0 0 4-4v-24a4 4 0 0 0-4-4H11a4 4 0 0 0-4 4v24a4 4 0 0 0 4 4Zm446 0h24a4 4 0 0 0 4-4v-24a4 4 0 0 0-4-4h-24a4 4 0 0 0-4 4v24a4 4 0 0 0 4 4Zm-38 0h24a4 4 0 0 0 4-4v-24a4 4 0 0 0-4-4h-24a4 4 0 0 0-4 4v24a4 4 0 0 0 4 4Zm-38 0h24a4 4 0 0 0 4-4v-24a4 4 0 0 0-4-4h-24a4 4 0 0 0-4 4v24a4 4 0 0 0 4 4Zm-38 0h24a4 4 0 0 0 4-4v-24a4 4 0 0 0-4-4h-24a4 4 0 0 0-4 4v24a4 4 0 0 0 4 4Zm-38 0h24a4 4 0 0 0 4-4v-24a4 4 0 0 0-4-4h-24a4 4 0 0 0-4 4v24a4 4 0 0 0 4 4Zm-38 0h24a4 4 0 0 0 4-4v-24a4 4 0 0 0-4-4h-24a4 4 0 0 0-4 4v24a4 4 0 0 0 4 4Zm-38 0h24a4 4 0 0 0 4-4v-24a4 4 0 0 0-4-4h-24a4 4 0 0 0-4 4v24a4 4 0 0 0 4 4Zm-38 0h24a4 4 0 0 0 4-4v-24a4 4 0 0 0-4-4h-24a4 4 0 0 0-4 4v24a4 4 0 0 0 4 4Zm-38 0h24a4 4 0 0 0 4-4v-24a4 4 0 0 0-4-4h-24a4 4 0 0 0-4 4v24a4 4 0 0 0 4 4Zm-38 0h24a4 4 0 0 0 4-4v-24a4 4 0 0 0-4-4h-24a4 4 0 0 0-4 4v24a4 4 0 0 0 4 4Zm-38 0h24a4 4 0 0 0 4-4v-24a4 4 0 0 0-4-4H77a4 4 0 0 0-4 4v24a4 4 0 0 0 4 4Z"/><path fill="#344250" d="M477 407h71a4 4 0 0 0 4-4v-24a4 4 0 0 0-4-4h-71a4 4 0 0 0-4 4v24a4 4 0 0 0 4 4Z"/><path fill="#1A212A" d="M439 407h24a4 4 0 0 0 4-4v-24a4 4 0 0 0-4-4h-24a4 4 0 0 0-4 4v24a4 4 0 0 0 4 4Zm-38 0h24a4 4 0 0 0 4-4v-24a4 4 0 0 0-4-4h-24a4 4 0 0 0-4 4v24a4 4 0 0 0 4 4Zm-38 0h24a4 4 0 0 0 4-4v-24a4 4 0 0 0-4-4h-24a4 4 0 0 0-4 4v24a4 4 0 0 0 4 4Zm-38 0h24a4 4 0 0 0 4-4v-24a4 4 0 0 0-4-4h-24a4 4 0 0 0-4 4v24a4 4 0 0 0 4 4Zm-38 0h24a4 4 0 0 0 4-4v-24a4 4 0 0 0-4-4h-24a4 4 0 0 0-4 4v24a4 4 0 0 0 4 4Zm-38 0h24a4 4 0 0 0 4-4v-24a4 4 0 0 0-4-4h-24a4 4 0 0 0-4 4v24a4 4 0 0 0 4 4Zm-38 0h24a4 4 0 0 0 4-4v-24a4 4 0 0 0-4-4h-24a4 4 0 0 0-4 4v24a4 4 0 0 0 4 4Zm-38 0h24a4 4 0 0 0 4-4v-24a4 4 0 0 0-4-4h-24a4 4 0 0 0-4 4v24a4 4 0 0 0 4 4Zm-38 0h24a4 4 0 0 0 4-4v-24a4 4 0 0 0-4-4h-24a4 4 0 0 0-4 4v24a4 4 0 0 0 4 4Zm-38 0h24a4 4 0 0 0 4-4v-24a4 4 0 0 0-4-4H97a4 4 0 0 0-4 4v24a4 4 0 0 0 4 4Z"/><path fill="#344250" d="M11 407h72a4 4 0 0 0 4-4v-24a4 4 0 0 0-4-4H11a4 4 0 0 0-4 4v24a4 4 0 0 0 4 4Zm0-74h44a4 4 0 0 0 4-4v-24a4 4 0 0 0-4-4H11a4 4 0 0 0-4 4v24a4 4 0 0 0 4 4Zm541-94v16c0 2.21-1.79 4-4 4h-24c-2.21 0-4-1.79-4-4v-24c0-2.21 1.79-4 4-4h16c6.62 0 12 5.38 12 12Z"/><path fill="#1A212A" d="M121 416v24a4 4 0 0 0 4 4h34a4 4 0 0 0 4-4v-24a4 4 0 0 0-4-4h-34a4 4 0 0 0-4 4Z"/><path fill="#344250" d="M169 416v24a4 4 0 0 0 4 4h176a4 4 0 0 0 4-4v-24a4 4 0 0 0-4-4H173a4 4 0 0 0-4 4Z"/><path fill="#1A212A" d="M83 416v24a4 4 0 0 0 4 4h24a4 4 0 0 0 4-4v-24a4 4 0 0 0-4-4H87a4 4 0 0 0-4 4Zm-38 0v24a4 4 0 0 0 4 4h24a4 4 0 0 0 4-4v-24a4 4 0 0 0-4-4H49a4 4 0 0 0-4 4Zm352-4h-34a4 4 0 0 0-4 4v24a4 4 0 0 0 4 4h34a4 4 0 0 0 4-4v-24a4 4 0 0 0-4-4Zm38 0h-24a4 4 0 0 0-4 4v24a4 4 0 0 0 4 4h24a4 4 0 0 0 4-4v-24a4 4 0 0 0-4-4Zm38 0h-24a4 4 0 0 0-4 4v24a4 4 0 0 0 4 4h24a4 4 0 0 0 4-4v-24a4 4 0 0 0-4-4Zm38 0h-24a4 4 0 0 0-4 4v24a4 4 0 0 0 4 4h24a4 4 0 0 0 4-4v-24a4 4 0 0 0-4-4Zm13 0h24c2.21 0 4 1.79 4 4v16c0 6.62-5.38 12-12 12h-16c-2.21 0-4-1.79-4-4v-24c0-2.21 1.79-4 4-4ZM7 432v-16c0-2.21 1.79-4 4-4h24c2.21 0 4 1.79 4 4v24c0 2.21-1.79 4-4 4H19c-6.62 0-12-5.38-12-12Z"/><defs><linearGradient id="a" x1="413.974" x2="413.974" y1=".188" y2="115.402" gradientUnits="userSpaceOnUse"><stop stop-color="#0883FD"/><stop offset="1" stop-color="#8CD1FB"/></linearGradient><linearGradient id="b" x1="485.982" x2="485.982" y1="158.607" y2="201.813" gradientUnits="userSpaceOnUse"><stop stop-color="#0883FD"/><stop offset="1" stop-color="#8CD1FB"/></linearGradient></defs></svg>