<svg xmlns="http://www.w3.org/2000/svg" width="532" height="453" fill="none"><path stroke="#1A212A" stroke-linecap="round" stroke-linejoin="round" stroke-miterlimit="10" stroke-width="13.159" d="M301.062 52.632v52.489m0 45.927v52.488m0 45.928v52.488m0 45.927v52.489"/><path fill="#1A212A" d="M301.059 52.633c12.477 0 22.591-10.282 22.591-22.964 0-12.683-10.114-22.964-22.591-22.964-12.476 0-22.591 10.281-22.591 22.964 0 12.682 10.115 22.964 22.591 22.964Zm0 98.415c12.477 0 22.591-10.281 22.591-22.964 0-12.683-10.114-22.964-22.591-22.964-12.476 0-22.591 10.281-22.591 22.964 0 12.683 10.115 22.964 22.591 22.964Zm0 98.416c12.477 0 22.591-10.281 22.591-22.964 0-12.683-10.114-22.964-22.591-22.964-12.476 0-22.591 10.281-22.591 22.964 0 12.683 10.115 22.964 22.591 22.964Zm0 98.416c12.477 0 22.591-10.281 22.591-22.964 0-12.683-10.114-22.964-22.591-22.964-12.476 0-22.591 10.281-22.591 22.964 0 12.683 10.115 22.964 22.591 22.964Zm0 98.415c12.477 0 22.591-10.281 22.591-22.964 0-12.682-10.114-22.964-22.591-22.964-12.476 0-22.591 10.282-22.591 22.964 0 12.683 10.115 22.964 22.591 22.964Zm128.017-344.898h70.051c5.843 0 10.579 4.815 10.579 10.755v32.645c0 5.94-4.736 10.755-10.579 10.755H372.55c-5.843 0-10.58-4.815-10.58-10.755v-32.645c0-5.94 4.737-10.755 10.58-10.755h26.939"/><path stroke="#344250" stroke-linecap="round" stroke-linejoin="round" stroke-miterlimit="10" stroke-width="8" d="M415.992 128.218h40"/><path fill="#1A212A" d="M499.127 253.577H372.55c-5.843 0-10.58-4.815-10.58-10.755v-32.645c0-5.94 4.737-10.755 10.58-10.755h126.576c5.843 0 10.58 4.815 10.58 10.755v32.645c0 5.941-4.737 10.755-10.579 10.755Z"/><path stroke="#344250" stroke-linecap="round" stroke-linejoin="round" stroke-miterlimit="10" stroke-width="8" d="M415.992 226.218h40"/><path fill="#1A212A" d="M442.75 351.603h-70.177c-5.842 0-10.579-4.815-10.579-10.755v-32.645c0-5.94 4.737-10.755 10.579-10.755h126.576c5.843 0 10.58 4.815 10.58 10.755v32.645c0 5.94-4.737 10.755-10.58 10.755h-26.813"/><path stroke="#344250" stroke-linecap="round" stroke-linejoin="round" stroke-miterlimit="10" stroke-width="8" d="M415.992 324.218h40"/><path fill="#1A212A" d="M499.127 446.295H372.55c-5.843 0-10.58-4.815-10.58-10.754v-32.646c0-5.939 4.737-10.754 10.58-10.754h126.576c5.843 0 10.58 4.815 10.58 10.754v32.646c0 5.939-4.736 10.754-10.579 10.754Z"/><path stroke="#344250" stroke-linecap="round" stroke-linejoin="round" stroke-miterlimit="10" stroke-width="8" d="M415.992 419.219h40"/><path fill="#1A212A" d="M499.127 60.858H372.55c-5.843 0-10.58-4.815-10.58-10.754V17.459c0-5.94 4.737-10.754 10.58-10.754h126.576c5.843 0 10.58 4.815 10.58 10.754v32.646c0 5.94-4.736 10.753-10.579 10.753Z"/><path stroke="#344250" stroke-linecap="round" stroke-linejoin="round" stroke-miterlimit="10" stroke-width="8" d="M415.992 34.218h40"/><g clip-path="url(#a)"><path fill="#1A212A" d="M150.233 278.002a62.789 62.789 0 0 1-3.145 11.957l12.77 11.763c-1.79 3.831-3.829 7.512-6.183 10.97l-16.396-5.373a61.905 61.905 0 0 1-8.643 8.781l5.286 16.667c-3.402 2.392-7.024 4.461-10.792 6.286l-11.572-12.982a60.075 60.075 0 0 1-11.763 3.197l-3.642 17.148c-2.06.166-4.127.319-6.232.319-2.105 0-4.172-.153-6.236-.319l-3.643-17.148a60.168 60.168 0 0 1-11.763-3.197l-11.57 12.982c-3.77-1.821-7.391-3.894-10.793-6.286l5.286-16.667a62.085 62.085 0 0 1-8.639-8.781l-16.396 5.373c-2.354-3.458-4.389-7.139-6.183-10.97l12.77-11.763a62.665 62.665 0 0 1-3.145-11.957L12.74 274.3c-.162-2.098-.313-4.2-.313-6.34 0-2.139.15-4.241.314-6.339l16.87-3.702a62.744 62.744 0 0 1 3.144-11.957l-12.77-11.763c1.79-3.831 3.83-7.512 6.183-10.97l16.396 5.373a61.844 61.844 0 0 1 8.643-8.781l-5.286-16.667c3.402-2.393 7.023-4.461 10.792-6.286l11.572 12.982a60.09 60.09 0 0 1 11.762-3.197l3.643-17.148c2.06-.166 4.127-.319 6.232-.319 2.105 0 4.172.153 6.236.319l3.643 17.148c4.07.676 8.002 1.75 11.763 3.197l11.571-12.982c3.769 1.82 7.39 3.893 10.792 6.286l-5.286 16.667a61.853 61.853 0 0 1 8.639 8.785l16.396-5.373c2.354 3.458 4.389 7.139 6.183 10.97l-12.77 11.763a62.71 62.71 0 0 1 3.145 11.957l16.869 3.702c.163 2.094.314 4.196.314 6.335 0 2.14-.151 4.242-.314 6.34l-16.869 3.702ZM89.921 226.5c-22.527 0-40.787 18.562-40.787 41.46 0 22.899 18.26 41.461 40.787 41.461 22.527 0 40.787-18.562 40.787-41.461 0-22.898-18.26-41.46-40.787-41.46Z"/><path fill="#344250" d="M197.106 153.163a33.48 33.48 0 0 1-2.492 6.136l6.441 12.546a45.442 45.442 0 0 1-7.403 7.525l-12.342-6.546a31.925 31.925 0 0 1-6.037 2.533l-4.176 13.516c-1.722.207-3.459.34-5.229.34-1.771 0-3.508-.133-5.225-.336l-4.177-13.516a32.179 32.179 0 0 1-6.036-2.533l-12.342 6.546a45.442 45.442 0 0 1-7.403-7.525l6.44-12.546a32.925 32.925 0 0 1-2.492-6.136l-13.297-4.245a45.783 45.783 0 0 1-.334-5.316c0-1.799.13-3.565.33-5.311l13.297-4.245a33.2 33.2 0 0 1 2.492-6.136l-6.44-12.546a45.403 45.403 0 0 1 7.403-7.525l12.342 6.546a31.824 31.824 0 0 1 6.036-2.533l4.177-13.516a43.6 43.6 0 0 1 5.229-.34c1.77 0 3.507.133 5.224.336l4.177 13.516a32.085 32.085 0 0 1 6.036 2.533l12.343-6.546a45.397 45.397 0 0 1 7.402 7.525l-6.44 12.546a32.925 32.925 0 0 1 2.492 6.136l13.297 4.245a45.78 45.78 0 0 1 .334 5.315c0 1.8-.13 3.566-.33 5.311l-13.297 4.246Zm-31.238-26.141c-9.01 0-16.315 7.426-16.315 16.584 0 9.159 7.305 16.585 16.315 16.585 9.009 0 16.314-7.426 16.314-16.585 0-9.158-7.305-16.584-16.314-16.584Z"/><path fill="#1A212A" d="M241.197 260.072a29.165 29.165 0 0 1-2.648 6.517l4.059 8.682a37.346 37.346 0 0 1-6.314 6.418l-8.541-4.125a28.045 28.045 0 0 1-6.412 2.69l-3.173 9.072c-1.464.182-2.945.303-4.458.303-1.513 0-2.994-.121-4.458-.303l-3.173-9.072a28.139 28.139 0 0 1-6.412-2.69l-8.541 4.125a37.304 37.304 0 0 1-6.313-6.418l4.058-8.682a29.065 29.065 0 0 1-2.647-6.513l-8.924-3.226a37.736 37.736 0 0 1-.298-4.536c0-1.538.118-3.043.298-4.531l8.924-3.226a28.988 28.988 0 0 1 2.647-6.513l-4.058-8.682a37.304 37.304 0 0 1 6.313-6.418l8.541 4.125a28.111 28.111 0 0 1 6.412-2.691l3.173-9.071a35.08 35.08 0 0 1 4.458-.307c1.513 0 2.994.12 4.458.303l3.173 9.071a28.123 28.123 0 0 1 6.412 2.691l8.541-4.125a37.31 37.31 0 0 1 6.314 6.418l-4.059 8.682a29.069 29.069 0 0 1 2.648 6.517l8.924 3.226c.179 1.488.297 2.993.297 4.531 0 1.539-.118 3.044-.297 4.532l-8.924 3.226Zm-27.487-20.196c-6.758 0-12.236 5.568-12.236 12.438 0 6.87 5.478 12.438 12.236 12.438 6.759 0 12.236-5.568 12.236-12.438 0-6.87-5.477-12.438-12.236-12.438Z"/><path fill="url(#b)" d="M250.275 117.958 225.88 113l-4.878 24.793 7.998 1.629 2.199-11.161a63.069 63.069 0 0 1 6.04 26.929c0 14.295-4.641 27.737-13.419 38.869l6.367 5.187c9.809-12.443 15.21-28.086 15.21-44.056 0-10.859-2.468-21.564-7.163-31.224l10.442 2.123 1.599-8.131Z"/><path fill="url(#c)" d="m88.448 144-5.767 5.862 5.543 5.635c-2.243-.145-4.49-.274-6.738-.274-31.553 0-61.254 14.142-81.484 38.803l6.265 5.311c18.676-22.766 46.09-35.822 75.22-35.822 2.075 0 4.147.121 6.22.253l-5.026 5.108 5.767 5.863 15.12-15.37L88.448 144Z"/></g><defs><linearGradient id="b" x1="235.638" x2="235.638" y1="113" y2="199.246" gradientUnits="userSpaceOnUse"><stop stop-color="#0883FD"/><stop offset="1" stop-color="#8CD1FB"/></linearGradient><linearGradient id="c" x1="51.785" x2="51.785" y1="144" y2="199.337" gradientUnits="userSpaceOnUse"><stop stop-color="#0883FD"/><stop offset="1" stop-color="#8CD1FB"/></linearGradient><clipPath id="a"><path fill="#fff" d="M.182 93.827h261.037v265.346H.182z"/></clipPath></defs></svg>