<svg xmlns="http://www.w3.org/2000/svg" width="364" height="264" fill="none"><rect width="361.667" height="263" x="1.167" y=".5" stroke="#191C1F" rx="9.5"/><path fill="#fff" d="M30.427 39.792H27.21V44h-1.152V32.544h4.367c2.209 0 3.6 1.44 3.6 3.6 0 2.08-1.408 3.648-3.6 3.648Zm-.16-6.208H27.21v5.168h2.992c1.663 0 2.624-1.056 2.624-2.624 0-1.584-.976-2.544-2.56-2.544Zm9.428 2.576v.992h-.608c-1.424 0-2.336.96-2.336 2.432V44h-1.104v-7.744h1.04l.08 1.2c.304-.832 1.12-1.376 2.208-1.376.24 0 .448.016.72.08Zm.626 3.968c0-2.368 1.664-4.08 3.936-4.08 2.272 0 3.936 1.712 3.936 4.08 0 2.352-1.664 4.064-3.936 4.064-2.272 0-3.936-1.712-3.936-4.064Zm1.12-.016c0 1.824 1.152 3.088 2.816 3.088 1.648 0 2.816-1.264 2.816-3.088 0-1.792-1.168-3.072-2.816-3.072-1.664 0-2.816 1.28-2.816 3.072Zm7.974.032c0-2.432 1.488-4.096 3.744-4.096 1.792 0 3.104 1.04 3.408 2.64h-1.104c-.288-1.072-1.216-1.664-2.288-1.664-1.568 0-2.672 1.2-2.672 3.104 0 1.84 1.024 3.072 2.592 3.072 1.152 0 2.08-.64 2.384-1.632h1.12c-.368 1.584-1.744 2.624-3.504 2.624-2.192 0-3.68-1.616-3.68-4.048Zm12.105 4.048c-2.272 0-3.792-1.632-3.792-4.064 0-2.416 1.504-4.08 3.712-4.08 2.096 0 3.52 1.488 3.52 3.68v.544H58.8c.08 1.888 1.072 2.976 2.736 2.976 1.264 0 2.08-.544 2.368-1.568h1.056c-.416 1.632-1.616 2.512-3.44 2.512Zm-.08-7.2c-1.456 0-2.416.96-2.608 2.48h5.024c0-1.488-.96-2.48-2.416-2.48Zm4.629 4.832h1.056c0 .896.672 1.456 1.76 1.456 1.2 0 1.904-.512 1.904-1.344 0-.64-.32-1.008-1.232-1.232l-1.328-.336c-1.344-.336-2-1.04-2-2.096 0-1.36 1.136-2.224 2.8-2.224 1.632 0 2.688.896 2.736 2.336h-1.072c-.032-.896-.656-1.424-1.696-1.424-1.088 0-1.696.464-1.696 1.296 0 .592.416 1.008 1.264 1.216l1.328.336c1.344.336 1.952.96 1.952 2.08 0 1.392-1.184 2.304-2.944 2.304-1.744 0-2.832-.928-2.832-2.368Zm6.937 0h1.056c0 .896.672 1.456 1.76 1.456 1.2 0 1.904-.512 1.904-1.344 0-.64-.32-1.008-1.232-1.232l-1.328-.336c-1.344-.336-2-1.04-2-2.096 0-1.36 1.136-2.224 2.8-2.224 1.632 0 2.688.896 2.736 2.336H77.63c-.032-.896-.656-1.424-1.696-1.424-1.088 0-1.696.464-1.696 1.296 0 .592.416 1.008 1.264 1.216l1.328.336c1.344.336 1.952.96 1.952 2.08 0 1.392-1.184 2.304-2.944 2.304-1.744 0-2.832-.928-2.832-2.368Z"/><rect width="314" height="32" x="24.666" y="54" fill="#1A212A" rx="16"/><rect width="274" height="32" x="24.666" y="54" fill="#344250" rx="16"/><path fill="#fff" d="M36.267 114.272c0 3.472-2.257 5.92-5.457 5.92-3.215 0-5.455-2.448-5.455-5.92s2.255-5.936 5.456-5.936c3.215 0 5.456 2.448 5.456 5.936Zm-1.184 0c0-2.864-1.744-4.816-4.272-4.816-2.529 0-4.256 1.952-4.256 4.816s1.727 4.816 4.256 4.816c2.528 0 4.272-1.968 4.272-4.816Zm3.032 9.104v-11.12h.96l.112 1.568c.544-1.2 1.632-1.776 2.928-1.776 2.24 0 3.584 1.712 3.584 4.048 0 2.336-1.296 4.096-3.584 4.096-1.312 0-2.352-.56-2.896-1.68v4.864h-1.104Zm1.12-7.248c0 1.776.992 3.072 2.688 3.072 1.68 0 2.656-1.296 2.656-3.072 0-1.792-.976-3.072-2.656-3.072-1.696 0-2.688 1.28-2.688 3.072ZM49.157 120h-1.088v-6.816h-1.552v-.928h1.552v-2.448h1.088v2.448h1.552v.928h-1.552V120Zm3.534-9.872a.82.82 0 0 1-.816-.816c0-.448.368-.832.816-.832.448 0 .832.384.832.832a.833.833 0 0 1-.832.816ZM52.147 120v-7.744h1.104V120h-1.104Zm4.51 0h-1.104v-7.744h.96l.128 1.104c.384-.816 1.248-1.312 2.336-1.312 1.216 0 2.128.64 2.496 1.648.352-1.008 1.296-1.648 2.544-1.648 1.68 0 2.784 1.088 2.784 2.88V120h-1.072v-4.848c0-1.328-.736-2.112-1.92-2.112-1.296 0-2.064.976-2.064 2.176V120h-1.088v-4.864c0-1.312-.752-2.08-1.92-2.08-1.296 0-2.08.96-2.08 2.144v4.8Zm12.909-9.872a.82.82 0 0 1-.816-.816c0-.448.368-.832.816-.832.448 0 .832.384.832.832a.833.833 0 0 1-.832.816ZM69.022 120v-7.744h1.104V120h-1.104Zm8.718 0H71.9v-.88l4.48-5.936H71.9v-.928h5.84v.896l-4.496 5.92h4.496V120Zm4.006.192c-1.648 0-2.624-.928-2.624-2.288 0-1.424 1.088-2.32 2.896-2.464l2.56-.208v-.256c0-1.52-.912-2-2.048-2-1.344 0-2.144.608-2.144 1.648h-1.008c0-1.568 1.28-2.576 3.184-2.576 1.792 0 3.104.896 3.104 2.944V120h-.928l-.144-1.36c-.48.976-1.536 1.552-2.848 1.552Zm.256-.896c1.632 0 2.576-1.136 2.576-2.816v-.416l-2.288.176c-1.456.128-2.048.768-2.048 1.632 0 .944.704 1.424 1.76 1.424Zm7.514.704h-1.088v-6.816h-1.552v-.928h1.552v-2.448h1.088v2.448h1.552v.928h-1.552V120Zm3.534-9.872a.82.82 0 0 1-.816-.816c0-.448.368-.832.816-.832.448 0 .832.384.832.832a.833.833 0 0 1-.832.816ZM92.506 120v-7.744h1.104V120h-1.104Zm2.862-3.872c0-2.368 1.664-4.08 3.936-4.08 2.272 0 3.936 1.712 3.936 4.08 0 2.352-1.664 4.064-3.936 4.064-2.272 0-3.936-1.712-3.936-4.064Zm1.12-.016c0 1.824 1.152 3.088 2.816 3.088 1.648 0 2.816-1.264 2.816-3.088 0-1.792-1.168-3.072-2.816-3.072-1.664 0-2.816 1.28-2.816 3.072ZM106.11 120h-1.104v-7.744h.96l.16 1.344c.512-.992 1.536-1.552 2.656-1.552 2.128 0 3.008 1.264 3.008 3.216V120h-1.104v-4.496c0-1.808-.816-2.448-2.096-2.448-1.584 0-2.48 1.152-2.48 2.896V120Z"/><rect width="314" height="32" x="24.666" y="130" fill="#1A212A" rx="16"/><rect width="170" height="32" x="24.666" y="130" fill="url(#a)" rx="16"/><path fill="#fff" d="M29.547 196h-3.489v-11.456h3.457c3.456 0 5.76 2.304 5.76 5.728S32.987 196 29.547 196Zm-.08-10.4H27.21v9.344h2.288c2.8 0 4.591-1.824 4.591-4.672 0-2.864-1.792-4.672-4.624-4.672Zm9.872 10.592c-1.648 0-2.624-.928-2.624-2.288 0-1.424 1.088-2.32 2.896-2.464l2.56-.208v-.256c0-1.52-.912-2-2.048-2-1.344 0-2.144.608-2.144 1.648h-1.008c0-1.568 1.28-2.576 3.184-2.576 1.792 0 3.104.896 3.104 2.944V196h-.928l-.144-1.36c-.48.976-1.536 1.552-2.848 1.552Zm.256-.896c1.632 0 2.576-1.136 2.576-2.816v-.416l-2.288.176c-1.456.128-2.048.768-2.048 1.632 0 .944.704 1.424 1.76 1.424Zm7.515.704h-1.088v-6.816H44.47v-.928h1.552v-2.448h1.088v2.448h1.552v.928H47.11V196Zm5.089.192c-1.648 0-2.624-.928-2.624-2.288 0-1.424 1.088-2.32 2.896-2.464l2.56-.208v-.256c0-1.52-.912-2-2.048-2-1.344 0-2.144.608-2.144 1.648H49.83c0-1.568 1.28-2.576 3.184-2.576 1.792 0 3.104.896 3.104 2.944V196h-.928l-.144-1.36c-.48.976-1.536 1.552-2.848 1.552Zm.256-.896c1.632 0 2.576-1.136 2.576-2.816v-.416l-2.288.176c-1.456.128-2.048.768-2.048 1.632 0 .944.704 1.424 1.76 1.424Zm10.557.704h-1.168l4.208-11.456h1.424L71.732 196h-1.2l-1.12-3.04h-5.28l-1.12 3.04Zm3.6-9.84-2.128 5.792h4.56L66.9 186.16c-.048-.16-.128-.352-.144-.464-.016.096-.08.304-.144.464Zm7.576 9.84h-1.104v-7.744h.96l.16 1.344c.512-.992 1.536-1.552 2.656-1.552 2.128 0 3.008 1.264 3.008 3.216V196h-1.104v-4.496c0-1.808-.816-2.448-2.096-2.448-1.584 0-2.48 1.152-2.48 2.896V196Zm10.105.192c-1.649 0-2.625-.928-2.625-2.288 0-1.424 1.088-2.32 2.896-2.464l2.56-.208v-.256c0-1.52-.911-2-2.047-2-1.344 0-2.144.608-2.144 1.648h-1.009c0-1.568 1.28-2.576 3.184-2.576 1.792 0 3.105.896 3.105 2.944V196h-.928l-.144-1.36c-.48.976-1.537 1.552-2.849 1.552Zm.255-.896c1.632 0 2.576-1.136 2.576-2.816v-.416l-2.287.176c-1.457.128-2.049.768-2.049 1.632 0 .944.705 1.424 1.76 1.424Zm7.032.704h-1.104v-11.664h1.104V196Zm1.564 3.376v-.912h.848c.672 0 1.344-.048 1.728-1.088l.336-.912-3.136-8.208h1.168l2.496 6.752 2.448-6.752h1.136l-3.552 9.52c-.448 1.216-1.2 1.712-2.304 1.712-.464 0-.816-.032-1.168-.112Zm7.612-5.552h1.056c0 .896.672 1.456 1.76 1.456 1.2 0 1.904-.512 1.904-1.344 0-.64-.32-1.008-1.232-1.232l-1.328-.336c-1.344-.336-2-1.04-2-2.096 0-1.36 1.136-2.224 2.8-2.224 1.632 0 2.688.896 2.736 2.336h-1.072c-.032-.896-.656-1.424-1.696-1.424-1.088 0-1.696.464-1.696 1.296 0 .592.416 1.008 1.264 1.216l1.328.336c1.344.336 1.952.96 1.952 2.08 0 1.392-1.184 2.304-2.944 2.304-1.744 0-2.832-.928-2.832-2.368Zm8.138-7.696a.82.82 0 0 1-.816-.816c0-.448.368-.832.816-.832.448 0 .832.384.832.832a.833.833 0 0 1-.832.816ZM108.35 196v-7.744h1.104V196h-1.104Zm2.75-2.176h1.056c0 .896.672 1.456 1.76 1.456 1.2 0 1.904-.512 1.904-1.344 0-.64-.32-1.008-1.232-1.232l-1.328-.336c-1.344-.336-2-1.04-2-2.096 0-1.36 1.136-2.224 2.8-2.224 1.632 0 2.688.896 2.736 2.336h-1.072c-.032-.896-.656-1.424-1.696-1.424-1.088 0-1.696.464-1.696 1.296 0 .592.416 1.008 1.264 1.216l1.328.336c1.344.336 1.952.96 1.952 2.08 0 1.392-1.184 2.304-2.944 2.304-1.744 0-2.832-.928-2.832-2.368Z"/><rect width="314" height="32" x="24.666" y="206" fill="#1A212A" rx="16"/><rect width="232" height="32" x="24.666" y="206" fill="#344250" rx="16"/><defs><linearGradient id="a" x1="109.667" x2="109.667" y1="130" y2="162" gradientUnits="userSpaceOnUse"><stop stop-color="#0883FD"/><stop offset="1" stop-color="#8CD1FB"/></linearGradient></defs></svg>