<svg xmlns="http://www.w3.org/2000/svg" width="363" height="264" fill="none"><g clip-path="url(#a)"><path stroke="#344250" stroke-linecap="round" stroke-linejoin="round" stroke-width="2" d="M.167 90.373c1.07 0 2.107.023 3.1.092m356.164 42.043c.945-.346 1.968-.507 3.068-.507" opacity=".55" style="mix-blend-mode:overlay"/><path stroke="#344250" stroke-linecap="round" stroke-linejoin="round" stroke-width="2" d="M.167 4.579V259.42h362.33V4.579" opacity=".25" style="mix-blend-mode:overlay"/><path stroke="#1A212A" stroke-miterlimit="10" stroke-width="2" d="M.167 169.592c85.694 0 83.214 46.679 120.777 46.679 37.562 0 28.714-140.337 60.388-140.337s11.049 117.02 60.388 117.02c49.34 0 37.563-62.108 60.389-62.108 22.825 0 21.353 72.648 60.388 72.648"/><path stroke="url(#b)" stroke-miterlimit="10" stroke-width="2" d="M.167 113.642c44.551 0 25.77 102.629 60.388 102.629 34.619 0 22.826-140.336 60.389-140.336 37.562 0 19.509 59.617 60.388 59.617S215.578 62.12 241.72 62.12c26.142 0 18.038 96.863 60.389 96.863 42.35 0 34.246-78.782 60.388-78.782"/><rect width="65" height="37" x="93.818" y="30.5" fill="#344250" rx="18.5"/><path fill="#fff" d="M112.936 45.61h-2.128v-1.232h3.444V54.5h-1.316v-8.89Zm3.168 3.836c0-3.136 1.624-5.264 4.172-5.264 2.534 0 4.158 2.128 4.158 5.264 0 3.15-1.554 5.236-4.158 5.236-2.618 0-4.172-2.086-4.172-5.236Zm1.358 0c0 2.492 1.036 4.004 2.814 4.004s2.8-1.512 2.8-4.004c0-2.52-1.022-4.032-2.8-4.032-1.778 0-2.814 1.512-2.814 4.032Zm9.959 5.054h-1.316V44.196h1.316v6.678l3.038-3.22h1.652l-2.618 2.73 2.604 4.116h-1.512l-2.002-3.164-1.162 1.218V54.5Zm5.933-5.278h2.94v-2.94h1.12v2.94h2.94v1.12h-2.94v2.954h-1.12v-2.954h-2.94v-1.12Z"/><rect width="8" height="8" x="122.318" y="75.5" fill="#007BFF" rx="4"/><rect width="12" height="12" x="120.318" y="73.5" stroke="#007BFF" stroke-opacity=".3" stroke-width="4" rx="6"/><rect width="8.007" height="8" x="336.812" y="106" fill="#007BFF" rx="4"/><rect width="12.007" height="12" x="334.812" y="104" stroke="#007BFF" stroke-opacity=".3" stroke-width="4" rx="6"/><rect width="62.187" height="34" x="267.438" y="85" fill="#344250" rx="17"/><path fill="#fff" d="M286.149 98.61h-2.128v-1.232h3.444V107.5h-1.316v-8.89Zm6.515 9.058c-2.072 0-3.416-1.316-3.416-3.332h1.358c0 1.302.798 2.1 2.086 2.1 1.372 0 2.254-.91 2.254-2.282 0-1.302-.826-2.268-2.24-2.268-.854 0-1.638.406-2.1.98l-1.162-.294 1.232-5.194h5.068v1.26h-4.074l-.672 2.688c.532-.406 1.204-.616 1.96-.616 2.058 0 3.388 1.442 3.388 3.388 0 2.1-1.498 3.57-3.682 3.57Zm6.479-.168h-1.316V97.196h1.316v6.678l3.038-3.22h1.652l-2.618 2.73 2.604 4.116h-1.512l-2.002-3.164-1.162 1.218v1.946Zm5.934-5.278h2.94v-2.94h1.12v2.94h2.94v1.12h-2.94v2.954h-1.12v-2.954h-2.94v-1.12Z"/></g><rect width="361.667" height="263" x=".5" y=".5" stroke="#191C1F" rx="9.5"/><defs><linearGradient id="b" x1="181.332" x2="181.332" y1="62.12" y2="216.271" gradientUnits="userSpaceOnUse"><stop stop-color="#0883FD"/><stop offset="1" stop-color="#8CD1FB"/></linearGradient><clipPath id="a"><rect width="362.667" height="264" fill="#fff" rx="10"/></clipPath></defs></svg>