<svg xmlns="http://www.w3.org/2000/svg" width="581" height="264" fill="none"><rect width="580" height="263" x=".5" y=".5" stroke="#191C1F" rx="9.5"/><path fill="#1A212A" d="M24 110.926a4 4 0 0 1 4-4h27.047a4 4 0 0 1 4 4V264H24V110.926Zm55.328 45.666a4 4 0 0 1 4-4h27.047a4 4 0 0 1 4 4V264H79.328V156.592Zm55.328 0a4 4 0 0 1 4-4h27.047a4 4 0 0 1 4 4V264h-35.047V156.592ZM189.984 49.86a4 4 0 0 1 4-4h27.048a4 4 0 0 1 4 4V264h-35.048V49.86Zm55.328 90.923a4 4 0 0 1 4-4h27.048a4 4 0 0 1 4 4V264h-35.048V140.783Zm55.329-57.95a4 4 0 0 1 4-4h27.047a4 4 0 0 1 4 4V264h-35.047V82.833Z"/><path fill="#344250" d="M355.969 95.187a4 4 0 0 1 4-4h27.047a4 4 0 0 1 4 4V264h-35.047V95.187Z"/><path fill="#1A212A" d="M411.297 49.86a4 4 0 0 1 4-4h27.047a4 4 0 0 1 4 4V264h-35.047V49.86Zm55.328 75.367a4 4 0 0 1 4-4h27.047a4 4 0 0 1 4 4V264h-35.047V125.227Zm55.328-42.394a4 4 0 0 1 4-4H553a4 4 0 0 1 4 4V264h-35.047V82.833Z"/><path stroke="url(#a)" stroke-width="2" d="m25 235 6.625-8c7.067-8 20.758-24 34.008-48 13.692-24 27.384-56 41.075-60 13.25-4 26.942 20 40.634 20 13.691 0 26.941-24 40.633-36 13.692-12 27.383-12 41.075 16 13.25 28 15.45 89 40.633 76 13.692-8 26.942-80 40.634-92 13.691-12 27.383 36 40.633 40 13.692 4 27.383-36 41.075-28 13.692 8 26.942 64 40.633 84 13.692 20 27.384 4 40.634-16 13.691-20 27.383-44 41.075-60 13.25-16 26.941-24 34.008-28L555 91"/><rect width="8" height="8" x="386" y="113" fill="#007BFF" rx="4"/><rect width="12" height="12" x="384" y="111" stroke="#007BFF" stroke-opacity=".3" stroke-width="4" rx="6"/><defs><linearGradient id="a" x1="290" x2="290" y1="91" y2="235" gradientUnits="userSpaceOnUse"><stop stop-color="#0883FD"/><stop offset="1" stop-color="#8CD1FB"/></linearGradient></defs></svg>