<svg xmlns="http://www.w3.org/2000/svg" width="363" height="264" fill="none"><rect width="361.333" height="263" x=".833" y=".5" stroke="#191C1F" rx="9.5"/><path fill="#1A212A" d="M232.502 188.013H130.506c-3.061 0-5.568-2.507-5.568-5.568V81.555c0-3.06 2.507-5.568 5.568-5.568h101.996c3.061 0 5.568 2.507 5.568 5.568v100.927c0 3.06-2.507 5.531-5.568 5.531ZM130.506 79.601c-1.07 0-1.918.848-1.918 1.917v100.927c0 1.069.848 1.917 1.918 1.917h101.996a1.904 1.904 0 0 0 1.917-1.917V81.555c0-1.07-.848-1.918-1.917-1.918H130.506v-.036Zm-29.794-18.032c-5.384 0-9.735-4.389-9.735-9.735 0-5.347 4.388-9.735 9.735-9.735 5.383 0 9.735 4.388 9.735 9.735 0 5.346-4.352 9.735-9.735 9.735Zm0-15.857c-3.356 0-6.122 2.73-6.122 6.122a6.106 6.106 0 0 0 6.122 6.12 6.106 6.106 0 0 0 6.121-6.12 6.106 6.106 0 0 0-6.121-6.122Z"/><path fill="#1A212A" d="M137.473 79.6a1.81 1.81 0 0 1-1.806-1.806V62.38l-9.588-8.74h-17.405a1.81 1.81 0 0 1-1.807-1.806 1.81 1.81 0 0 1 1.807-1.807h18.106c.442 0 .885.184 1.217.48l10.693 9.771c.369.332.59.811.59 1.328v16.188a1.81 1.81 0 0 1-1.807 1.807Zm124.824-18.031c-5.383 0-9.735-4.389-9.735-9.735 0-5.347 4.389-9.735 9.735-9.735 5.384 0 9.735 4.388 9.735 9.735 0 5.346-4.388 9.735-9.735 9.735Zm0-15.857c-3.355 0-6.121 2.73-6.121 6.122a6.106 6.106 0 0 0 6.121 6.12c3.356 0 6.122-2.728 6.122-6.12 0-3.393-2.766-6.122-6.122-6.122Z"/><path fill="#1A212A" d="M225.533 79.6a1.81 1.81 0 0 1-1.806-1.806V61.606c0-.517.221-.996.59-1.328l10.693-9.772a1.87 1.87 0 0 1 1.217-.48h18.106a1.81 1.81 0 0 1 1.807 1.808 1.81 1.81 0 0 1-1.807 1.807h-17.405l-9.588 8.739v15.414a1.81 1.81 0 0 1-1.807 1.807Zm-95.209-36.21c-3.871 0-7.043-3.172-7.043-7.044 0-3.871 3.172-7.043 7.043-7.043 3.872 0 7.044 3.171 7.044 7.043-.037 3.91-3.172 7.044-7.044 7.044Zm0-10.436a3.384 3.384 0 0 0-3.392 3.392 3.384 3.384 0 0 0 3.392 3.393 3.384 3.384 0 0 0 3.393-3.393c0-1.88-1.549-3.392-3.393-3.392Z"/><path fill="#1A212A" d="M148.979 79.6a1.81 1.81 0 0 1-1.806-1.806V43.869l-6.306-5.68h-5.31a1.81 1.81 0 0 1-1.807-1.806 1.81 1.81 0 0 1 1.807-1.807h6.011c.442 0 .885.184 1.216.48l7.412 6.674c.369.332.59.848.59 1.364V77.83c0 .96-.811 1.77-1.807 1.77Zm15.191-29.831c-3.724 0-6.748-3.024-6.748-6.785a6.751 6.751 0 0 1 6.748-6.748c3.724 0 6.785 3.023 6.785 6.748-.037 3.724-3.061 6.785-6.785 6.785Zm0-9.92a3.132 3.132 0 0 0-3.134 3.135 3.132 3.132 0 0 0 3.134 3.134 3.132 3.132 0 0 0 3.134-3.134 3.132 3.132 0 0 0-3.134-3.135Z"/><path fill="#1A212A" d="M164.174 79.6a1.81 1.81 0 0 1-1.807-1.806V47.925a1.81 1.81 0 0 1 1.807-1.807 1.81 1.81 0 0 1 1.807 1.807v29.869a1.81 1.81 0 0 1-1.807 1.807Zm34.473-21.276c-3.725 0-6.749-3.024-6.749-6.785a6.752 6.752 0 0 1 6.749-6.748c3.724 0 6.785 3.023 6.785 6.748-.037 3.76-3.061 6.785-6.785 6.785Zm0-9.92a3.132 3.132 0 0 0-3.135 3.135 3.132 3.132 0 0 0 3.135 3.134 3.131 3.131 0 0 0 3.134-3.134c0-1.697-1.401-3.135-3.134-3.135Z"/><path fill="#1A212A" d="M198.651 79.6a1.81 1.81 0 0 1-1.807-1.806V56.517a1.81 1.81 0 0 1 1.807-1.807 1.81 1.81 0 0 1 1.806 1.807v21.277a1.81 1.81 0 0 1-1.806 1.807Zm16.298-29.831c-3.724 0-6.785-3.024-6.785-6.785 0-3.725 3.024-6.748 6.785-6.748 3.724 0 6.785 3.023 6.785 6.748 0 3.724-3.024 6.785-6.785 6.785Zm0-9.92a3.132 3.132 0 0 0-3.134 3.135 3.132 3.132 0 0 0 3.134 3.134 3.132 3.132 0 0 0 3.134-3.134c.037-1.733-1.401-3.135-3.134-3.135Z"/><path fill="#1A212A" d="M214.947 79.6a1.81 1.81 0 0 1-1.806-1.806V47.925a1.81 1.81 0 0 1 1.806-1.807 1.81 1.81 0 0 1 1.807 1.807v29.869c.037.995-.774 1.807-1.807 1.807Zm-33.446-45.65c-5.494 0-9.993-4.463-9.993-9.994 0-5.494 4.499-9.956 9.993-9.956 5.494 0 9.993 4.462 9.993 9.993 0 5.495-4.499 9.956-9.993 9.956Zm0-16.336a6.343 6.343 0 1 0 6.342 6.342c0-3.466-2.839-6.342-6.342-6.342Z"/><path fill="#1A212A" d="M181.502 79.6a1.81 1.81 0 0 1-1.807-1.806V32.143a1.81 1.81 0 0 1 1.807-1.807 1.81 1.81 0 0 1 1.807 1.807v45.65a1.81 1.81 0 0 1-1.807 1.808Zm-80.79 142.338c-5.384 0-9.735-4.388-9.735-9.735 0-5.384 4.388-9.735 9.735-9.735 5.383 0 9.735 4.388 9.735 9.735.036 5.347-4.352 9.735-9.735 9.735Zm0-15.893c-3.356 0-6.122 2.729-6.122 6.121 0 3.356 2.73 6.121 6.122 6.121a6.106 6.106 0 0 0 6.121-6.121c0-3.355-2.729-6.121-6.121-6.121Z"/><path fill="#1A212A" d="M126.741 214.01h-18.106a1.81 1.81 0 0 1-1.807-1.807 1.81 1.81 0 0 1 1.807-1.807h17.405l9.587-8.739v-15.451a1.81 1.81 0 0 1 1.807-1.807 1.81 1.81 0 0 1 1.807 1.807v16.188c0 .517-.221.996-.59 1.328l-10.694 9.772c-.295.332-.737.516-1.216.516Zm135.556 7.928c-5.383 0-9.735-4.388-9.735-9.735 0-5.384 4.389-9.735 9.735-9.735 5.384 0 9.735 4.388 9.735 9.735 0 5.347-4.388 9.735-9.735 9.735Zm0-15.893c-3.355 0-6.121 2.729-6.121 6.121 0 3.356 2.729 6.121 6.121 6.121 3.356 0 6.122-2.728 6.122-6.121 0-3.355-2.766-6.121-6.122-6.121Z"/><path fill="#1A212A" d="M254.372 214.01h-18.106a1.87 1.87 0 0 1-1.217-.479l-10.693-9.772a1.784 1.784 0 0 1-.59-1.328v-16.225a1.81 1.81 0 0 1 1.807-1.807 1.81 1.81 0 0 1 1.806 1.807v15.377l9.588 8.74h17.405a1.81 1.81 0 0 1 1.807 1.806c0 1.07-.812 1.881-1.807 1.881Zm-124.048 20.65c-3.871 0-7.043-3.171-7.043-7.043 0-3.872 3.172-7.043 7.043-7.043 3.872 0 7.044 3.171 7.044 7.043-.037 3.909-3.172 7.043-7.044 7.043Zm0-10.436a3.384 3.384 0 0 0-3.392 3.393 3.384 3.384 0 0 0 3.392 3.392 3.384 3.384 0 0 0 3.393-3.392c0-1.844-1.549-3.393-3.393-3.393Z"/><path fill="#1A212A" d="M141.568 229.461h-6.011a1.81 1.81 0 0 1-1.807-1.807 1.81 1.81 0 0 1 1.807-1.807h5.31l6.306-5.679v-33.925a1.81 1.81 0 0 1 1.806-1.807 1.81 1.81 0 0 1 1.807 1.807v34.736c0 .517-.221.996-.59 1.365l-7.412 6.637c-.368.295-.774.48-1.216.48Zm22.602-1.697c-3.724 0-6.748-3.023-6.748-6.785a6.752 6.752 0 0 1 6.748-6.748c3.724 0 6.785 3.024 6.785 6.748-.037 3.762-3.061 6.785-6.785 6.785Zm0-9.882a3.131 3.131 0 0 0-3.134 3.134 3.132 3.132 0 0 0 3.134 3.135 3.132 3.132 0 0 0 3.134-3.135 3.131 3.131 0 0 0-3.134-3.134Z"/><path fill="#1A212A" d="M164.174 217.882a1.81 1.81 0 0 1-1.807-1.807v-29.869a1.81 1.81 0 0 1 1.807-1.807 1.81 1.81 0 0 1 1.807 1.807v29.869a1.81 1.81 0 0 1-1.807 1.807Zm34.473 1.327c-3.725 0-6.749-3.023-6.749-6.785a6.752 6.752 0 0 1 6.749-6.748c3.724 0 6.785 3.024 6.785 6.748-.037 3.762-3.061 6.785-6.785 6.785Zm0-9.882a3.131 3.131 0 0 0-3.135 3.134 3.132 3.132 0 0 0 3.135 3.135 3.132 3.132 0 0 0 3.134-3.135 3.131 3.131 0 0 0-3.134-3.134Z"/><path fill="#1A212A" d="M198.651 209.327a1.81 1.81 0 0 1-1.807-1.807v-21.314a1.81 1.81 0 0 1 1.807-1.807 1.81 1.81 0 0 1 1.806 1.807v21.277c0 1.033-.811 1.844-1.806 1.844Zm16.298 18.437c-3.724 0-6.785-3.023-6.785-6.785 0-3.724 3.024-6.748 6.785-6.748 3.724 0 6.785 3.024 6.785 6.748a6.767 6.767 0 0 1-6.785 6.785Zm0-9.882a3.131 3.131 0 0 0-3.134 3.134 3.132 3.132 0 0 0 3.134 3.135 3.132 3.132 0 0 0 3.134-3.135c.037-1.733-1.401-3.134-3.134-3.134Z"/><path fill="#1A212A" d="M214.947 217.882a1.81 1.81 0 0 1-1.806-1.807v-29.869a1.81 1.81 0 0 1 1.806-1.807 1.81 1.81 0 0 1 1.807 1.807v29.869c.037.996-.774 1.807-1.807 1.807ZM181.501 250c-5.494 0-9.993-4.462-9.993-9.993a9.978 9.978 0 0 1 9.993-9.993c5.494 0 9.993 4.462 9.993 9.993 0 5.531-4.499 9.993-9.993 9.993Zm0-16.336a6.343 6.343 0 1 0 0 12.686 6.343 6.343 0 0 0 0-12.686Z"/><path fill="#1A212A" d="M181.502 233.664a1.81 1.81 0 0 1-1.807-1.806v-45.652a1.81 1.81 0 0 1 1.807-1.807 1.81 1.81 0 0 1 1.807 1.807v45.652a1.81 1.81 0 0 1-1.807 1.806Zm-54.724-119.29H96.799a1.81 1.81 0 0 1-1.807-1.807 1.81 1.81 0 0 1 1.807-1.807h29.979a1.81 1.81 0 0 1 1.807 1.807 1.81 1.81 0 0 1-1.807 1.807Z"/><path fill="#1A212A" d="M91.013 120.163c-4.167 0-7.56-3.392-7.56-7.559s3.393-7.56 7.56-7.56c4.166 0 7.559 3.393 7.559 7.56.037 4.167-3.393 7.559-7.56 7.559Zm0-11.505a3.95 3.95 0 0 0-3.946 3.946 3.95 3.95 0 0 0 3.946 3.945 3.95 3.95 0 0 0 3.945-3.945 3.95 3.95 0 0 0-3.945-3.946Zm35.765 48.564H96.799a1.81 1.81 0 0 1-1.807-1.806 1.81 1.81 0 0 1 1.807-1.807h29.979a1.81 1.81 0 0 1 1.807 1.807 1.81 1.81 0 0 1-1.807 1.806Z"/><path fill="#1A212A" d="M91.013 163.012c-4.167 0-7.56-3.393-7.56-7.56 0-4.166 3.393-7.559 7.56-7.559 4.166 0 7.559 3.393 7.559 7.559.037 4.13-3.393 7.56-7.56 7.56Zm0-11.542a3.95 3.95 0 0 0-3.946 3.946 3.95 3.95 0 0 0 3.946 3.945 3.95 3.95 0 0 0 3.945-3.945 3.95 3.95 0 0 0-3.945-3.946Zm-17.48-10.288c-5.051 0-9.181-4.13-9.181-9.182 0-5.052 4.13-9.182 9.181-9.182 5.052 0 9.182 4.13 9.182 9.182-.037 5.052-4.13 9.182-9.182 9.182Zm0-14.713a5.523 5.523 0 0 0-5.53 5.531 5.523 5.523 0 0 0 5.53 5.531c3.061 0 5.532-2.507 5.532-5.531 0-3.024-2.47-5.531-5.532-5.531Z"/><path fill="#1A212A" d="M126.742 133.807H80.869A1.81 1.81 0 0 1 79.063 132a1.81 1.81 0 0 1 1.806-1.807h45.873a1.81 1.81 0 0 1 1.807 1.807c.037.996-.775 1.807-1.807 1.807Zm139.466-19.433h-29.979a1.81 1.81 0 0 1-1.807-1.807 1.81 1.81 0 0 1 1.807-1.807h29.979a1.81 1.81 0 0 1 1.807 1.807c.037.996-.774 1.807-1.807 1.807Z"/><path fill="#1A212A" d="M271.997 120.163c-4.167 0-7.559-3.392-7.559-7.559s3.392-7.56 7.559-7.56 7.559 3.393 7.559 7.56-3.392 7.559-7.559 7.559Zm0-11.505a3.95 3.95 0 0 0-3.946 3.946 3.95 3.95 0 0 0 3.946 3.945 3.95 3.95 0 0 0 3.945-3.945 3.95 3.95 0 0 0-3.945-3.946Zm-5.789 48.564h-29.979a1.81 1.81 0 0 1-1.807-1.806 1.81 1.81 0 0 1 1.807-1.807h29.979a1.81 1.81 0 0 1 1.807 1.807c.037.995-.774 1.806-1.807 1.806Z"/><path fill="#1A212A" d="M271.997 163.012c-4.167 0-7.559-3.393-7.559-7.56 0-4.166 3.392-7.559 7.559-7.559s7.559 3.393 7.559 7.559c0 4.13-3.392 7.56-7.559 7.56Zm0-11.542a3.95 3.95 0 0 0-3.946 3.946 3.95 3.95 0 0 0 3.946 3.945 3.95 3.95 0 0 0 3.945-3.945 3.95 3.95 0 0 0-3.945-3.946Zm17.474-10.288c-5.052 0-9.182-4.13-9.182-9.182 0-5.052 4.13-9.182 9.182-9.182 5.052 0 9.182 4.13 9.182 9.182 0 5.052-4.093 9.182-9.182 9.182Zm0-14.713A5.523 5.523 0 0 0 283.94 132a5.523 5.523 0 0 0 5.531 5.531c3.061 0 5.531-2.507 5.531-5.531 0-3.024-2.47-5.531-5.531-5.531Z"/><path fill="#1A212A" d="M282.132 133.807H236.26a1.81 1.81 0 0 1-1.807-1.807 1.81 1.81 0 0 1 1.807-1.807h45.872a1.81 1.81 0 0 1 1.807 1.807 1.81 1.81 0 0 1-1.807 1.807Z"/><path fill="url(#a)" d="M218.269 135.134c-.369 0-.701-.11-1.032-.331-.812-.554-1.033-1.697-.48-2.508 1.733-2.544 1.955-5.863.664-8.887-1.254-2.913-3.688-4.978-6.379-5.42-.554-.074-.996-.406-1.291-.885-.258-.48-.332-1.033-.148-1.549 1.549-4.314.148-8.518-3.724-11.247-3.429-2.434-9.034-3.503-13.275-.111-.406.332-.922.48-1.438.369-.516-.074-.959-.406-1.254-.848-5.089-8.334-12.39-7.338-15.303-6.527-4.462 1.254-8.112 4.683-8.112 7.633a1.81 1.81 0 0 1-1.807 1.807 1.81 1.81 0 0 1-1.807-1.807c0-4.609 4.609-9.403 10.767-11.136 7.08-1.991 13.828.442 18.29 6.527 4.794-2.766 11.1-2.434 16.041 1.069 4.646 3.319 6.674 8.371 5.568 13.57 3.098 1.143 5.753 3.688 7.191 7.043 1.807 4.204 1.438 8.813-.996 12.39-.332.59-.922.848-1.475.848Z"/><path fill="url(#b)" d="M210.341 160.431c-4.019 0-8.334-1.475-12.611-4.388-.811-.553-1.033-1.697-.479-2.508.553-.848 1.696-1.032 2.507-.479 6.343 4.351 12.427 4.978 17.11 1.733 4.167-2.876 6.269-8.297 5.089-13.238-1.254-5.163-5.716-8.518-12.575-9.44-.995-.148-1.696-1.033-1.548-2.028.147-.996 1.069-1.733 2.028-1.549 8.334 1.106 14.049 5.568 15.635 12.206 1.512 6.342-1.18 13.348-6.564 17.073-2.544 1.733-5.457 2.618-8.592 2.618Z"/><path fill="url(#c)" d="M197.618 170.903a9.439 9.439 0 0 1-3.835-.811c-1.327-.553-2.212-1.733-2.434-3.171-.626-4.093-2.765-7.707-6.084-10.104-3.134-2.323-7.043-3.319-10.694-2.766-6.01.701-10.841-.405-14.381-3.245-3.061-2.47-4.425-5.678-4.978-7.706-5.089.848-9.919-.627-13.423-4.13-4.019-4.02-5.641-10.141-4.166-15.562 1.475-5.347 5.641-9.329 11.763-11.357-.406-3.466 1.512-7.449 4.941-9.588 4.462-2.802 9.624-1.622 13.791 3.208a1.805 1.805 0 0 1-2.729 2.36c-2.95-3.429-6.195-4.351-9.108-2.507-2.544 1.586-3.945 4.904-3.023 7.043.221.479.184 1.033-.037 1.512a1.725 1.725 0 0 1-1.18.959c-5.79 1.475-9.662 4.757-10.915 9.292-1.143 4.167.11 8.924 3.208 12.021 3.024 3.061 7.19 4.057 11.763 2.803.516-.148 1.069-.037 1.512.258.442.295.737.774.774 1.328 0 .036.516 4.388 4.093 7.227 2.766 2.213 6.638 3.024 11.579 2.434 4.536-.664 9.403.553 13.349 3.429 4.093 2.987 6.748 7.449 7.522 12.501.037.184.111.295.258.369 1.623.663 3.172.663 4.757.036.111-.036.185-.184.185-.331v-10.067a1.81 1.81 0 0 1 1.807-1.807 1.81 1.81 0 0 1 1.806 1.807v10.067a3.963 3.963 0 0 1-2.507 3.687c-1.18.59-2.397.811-3.614.811Z"/><defs><linearGradient id="a" x1="192.378" x2="192.378" y1="93.006" y2="135.134" gradientUnits="userSpaceOnUse"><stop stop-color="#0883FD"/><stop offset="1" stop-color="#8CD1FB"/></linearGradient><linearGradient id="b" x1="211.43" x2="211.43" y1="128.506" y2="160.431" gradientUnits="userSpaceOnUse"><stop stop-color="#0883FD"/><stop offset="1" stop-color="#8CD1FB"/></linearGradient><linearGradient id="c" x1="170.413" x2="170.413" y1="100.969" y2="170.903" gradientUnits="userSpaceOnUse"><stop stop-color="#0883FD"/><stop offset="1" stop-color="#8CD1FB"/></linearGradient></defs></svg>