<svg xmlns="http://www.w3.org/2000/svg" width="171" height="44" fill="none"><path fill="#C8CACC" d="M59.978 27.954h9.968v-2.73h-6.675V12.293h-3.293v15.66Zm16.709.228c3.543 0 5.748-2.44 5.748-6.056 0-3.64-2.205-6.072-5.748-6.072s-5.748 2.432-5.748 6.072c0 3.617 2.205 6.056 5.748 6.056Zm.016-2.523c-1.635 0-2.472-1.507-2.472-3.556 0-2.05.837-3.564 2.472-3.564 1.604 0 2.44 1.514 2.44 3.564s-.836 3.556-2.44 3.556Zm12.47 6.943c3.338 0 5.71-1.53 5.71-4.535v-11.86h-3.216v1.973h-.122c-.433-.956-1.383-2.126-3.338-2.126-2.562 0-4.728 2.004-4.728 6.003 0 3.907 2.106 5.728 4.736 5.728 1.863 0 2.904-.941 3.33-1.912h.137v2.148c0 1.614-1.026 2.241-2.433 2.241-1.43 0-2.151-.627-2.418-1.338l-2.995.405c.388 1.85 2.19 3.273 5.337 3.273Zm.069-7.265c-1.59 0-2.456-1.269-2.456-3.295 0-1.996.851-3.396 2.456-3.396 1.573 0 2.455 1.338 2.455 3.396 0 2.072-.897 3.295-2.456 3.295Zm12.848 2.845c3.543 0 5.748-2.44 5.748-6.056 0-3.64-2.205-6.072-5.748-6.072s-5.748 2.432-5.748 6.072c0 3.617 2.205 6.056 5.748 6.056Zm.015-2.523c-1.635 0-2.471-1.507-2.471-3.556 0-2.05.836-3.564 2.471-3.564 1.604 0 2.44 1.514 2.44 3.564s-.836 3.556-2.44 3.556Zm7.206 2.293h3.239V16.206h-3.239v11.746Zm1.627-13.26c.966 0 1.756-.742 1.756-1.652 0-.902-.79-1.644-1.756-1.644-.958 0-1.749.742-1.749 1.644 0 .91.791 1.652 1.749 1.652Zm3.56 17.665h3.238v-6.285h.099c.449.978 1.429 2.072 3.315 2.072 2.662 0 4.737-2.118 4.737-6.049 0-4.037-2.167-6.041-4.729-6.041-1.954 0-2.889 1.17-3.323 2.126h-.145v-1.973h-3.192v16.15Zm3.17-10.277c0-2.095.882-3.434 2.455-3.434 1.606 0 2.457 1.4 2.457 3.434 0 2.05-.867 3.472-2.457 3.472-1.558 0-2.455-1.377-2.455-3.472Zm19.454-2.524c-.289-2.164-2.022-3.502-4.973-3.502-2.988 0-4.956 1.392-4.95 3.655-.006 1.76 1.095 2.899 3.377 3.357l2.022.406c1.019.206 1.483.58 1.498 1.17-.015.695-.768 1.192-1.901 1.192-1.156 0-1.923-.497-2.121-1.452l-3.185.168c.304 2.248 2.204 3.632 5.299 3.632 3.025 0 5.192-1.552 5.2-3.87-.008-1.697-1.111-2.714-3.375-3.18l-2.115-.429c-1.087-.237-1.489-.611-1.482-1.177-.007-.704.783-1.163 1.786-1.163 1.126 0 1.795.62 1.954 1.377l2.966-.184Zm9.15 3.393c.008 1.575-1.065 2.401-2.228 2.401-1.224 0-2.015-.864-2.022-2.248v-6.898h-3.239v7.48c.007 2.744 1.604 4.42 3.953 4.42 1.757 0 3.019-.91 3.544-2.287h.121v2.133h3.109V16.204h-3.238v6.745Zm5.195 5.004h3.239v-7.05c0-1.3.821-2.165 1.9-2.165 1.065 0 1.78.734 1.78 1.889v7.326h3.14V20.78c0-1.216.692-2.042 1.87-2.042 1.034 0 1.81.65 1.81 1.958v7.257h3.231v-7.9c0-2.546-1.505-3.999-3.68-3.999-1.711 0-3.041.88-3.52 2.225h-.121c-.373-1.361-1.567-2.225-3.171-2.225-1.574 0-2.768.841-3.254 2.225h-.137v-2.072h-3.087v11.746ZM19.66 2.255h10.095l-4.052 11.389c-7.131 1.26-12.586 8.2-12.586 16.571 0 3.777 1.11 7.262 2.983 10.066H2.697L14.95 5.841c.77-2.166 2.636-3.586 4.71-3.586Z"/><path fill="#C8CACC" d="m29.758 2.255-2.847 8.004-.858-8.004h3.705Z"/><path fill="#C8CACC" d="M36.147 2.255H26.053l4.034 11.34c7.274 1.121 12.877 8.135 12.877 16.62 0 3.777-1.11 7.262-2.983 10.066h13.13L40.856 5.841c-.77-2.166-2.636-3.586-4.71-3.586Z"/><path fill="#C8CACC" d="M17.853 39.186c-1.725-2.471-2.753-5.586-2.753-8.97 0-8.03 5.79-14.54 12.932-14.54s12.931 6.51 12.931 14.54c0 3.384-1.028 6.499-2.753 8.97a16.925 16.925 0 0 0-10.178-3.378 16.925 16.925 0 0 0-10.179 3.378Z"/></svg>